<svg width="14" height="8" viewBox="0 0 14 8" fill="none" xmlns="http://www.w3.org/2000/svg">
<path d="M13.018 6.88535C13.0026 6.85288 12.9882 6.82596 12.9748 6.80439C12.7535 6.41569 12.3305 5.9386 11.7062 5.37297L11.693 5.36002L11.6864 5.35367L11.6797 5.34716H11.673C11.3897 5.08377 11.2103 4.90668 11.1351 4.81601C10.9976 4.64329 10.9668 4.46846 11.042 4.29132C11.0951 4.15749 11.2945 3.87484 11.6398 3.44301C11.8214 3.21415 11.9652 3.03072 12.0714 2.89253C12.8375 1.89942 13.1696 1.26481 13.0677 0.988446L13.0282 0.923865C13.0016 0.884984 12.933 0.849415 12.8224 0.816977C12.7116 0.784607 12.5699 0.779253 12.3972 0.800826L10.4844 0.81371C10.4534 0.803003 10.4092 0.804001 10.3515 0.816977C10.2939 0.829952 10.2651 0.836463 10.2651 0.836463L10.2318 0.852682L10.2054 0.872167C10.1833 0.885052 10.1589 0.907714 10.1323 0.940107C10.1059 0.972386 10.0838 1.01027 10.0661 1.05344C9.85782 1.57587 9.62105 2.06161 9.35531 2.51062C9.19147 2.77836 9.041 3.0104 8.90359 3.20686C8.76636 3.40326 8.65123 3.54797 8.55831 3.64072C8.46526 3.73357 8.38128 3.80795 8.30586 3.86414C8.23056 3.92035 8.17308 3.9441 8.13327 3.93541C8.09338 3.92672 8.05581 3.9181 8.02024 3.90948C7.95829 3.8706 7.90846 3.81772 7.87089 3.75081C7.83315 3.68389 7.80775 3.59966 7.79447 3.4982C7.78125 3.39666 7.77344 3.30933 7.7712 3.2359C7.76913 3.16256 7.77009 3.05883 7.77458 2.92499C7.77918 2.79109 7.78125 2.70049 7.78125 2.65299C7.78125 2.48889 7.78453 2.3108 7.79112 2.11866C7.79782 1.92653 7.80324 1.77429 7.80778 1.66214C7.81229 1.54988 7.81438 1.4311 7.81438 1.30589C7.81438 1.18067 7.80657 1.08247 7.79112 1.0112C7.77586 0.940015 7.75243 0.87092 7.72156 0.803934C7.69051 0.737015 7.64505 0.68525 7.5854 0.648502C7.52564 0.611799 7.45134 0.582672 7.36291 0.561032C7.12821 0.509244 6.82935 0.481229 6.46619 0.476874C5.64265 0.468254 5.11348 0.52011 4.8788 0.632373C4.78582 0.679806 4.70167 0.744614 4.62644 0.826595C4.54672 0.921619 4.5356 0.973475 4.59315 0.982004C4.85886 1.02082 5.04697 1.11366 5.15768 1.26045L5.19758 1.33824C5.22861 1.39436 5.25959 1.49371 5.2906 1.63617C5.32157 1.77863 5.34155 1.93621 5.35034 2.10884C5.37244 2.42408 5.37244 2.69393 5.35034 2.91841C5.32817 3.14299 5.30724 3.31781 5.28725 3.44303C5.26727 3.56824 5.2374 3.66971 5.19758 3.7474C5.15768 3.82512 5.13114 3.87262 5.11783 3.88986C5.10455 3.9071 5.09347 3.91797 5.08468 3.92223C5.02713 3.94374 4.96727 3.95469 4.90532 3.95469C4.84328 3.95469 4.76804 3.92443 4.6795 3.86396C4.59099 3.80348 4.49912 3.72041 4.4039 3.61461C4.30869 3.50879 4.20131 3.36091 4.08171 3.17095C3.96221 2.981 3.83821 2.75649 3.7098 2.49744L3.60356 2.30957C3.53714 2.18871 3.44642 2.01273 3.33129 1.78178C3.21609 1.55074 3.11426 1.32726 3.02575 1.11137C2.99036 1.0207 2.93721 0.951675 2.86637 0.904175L2.83313 0.884689C2.81103 0.867449 2.77555 0.849143 2.72689 0.829634C2.67815 0.810149 2.6273 0.796175 2.57412 0.787578L0.75426 0.800463C0.568294 0.800463 0.442114 0.841544 0.375674 0.923592L0.349085 0.962405C0.335801 0.984023 0.329102 1.01855 0.329102 1.06607C0.329102 1.11357 0.342385 1.17187 0.368975 1.2409C0.63464 1.84974 0.923546 2.43692 1.23569 3.00253C1.54784 3.56813 1.81909 4.02374 2.04927 4.36895C2.27951 4.71441 2.51419 5.04044 2.75331 5.34691C2.99243 5.65348 3.15072 5.84995 3.22816 5.93626C3.3057 6.02274 3.3666 6.08739 3.41087 6.13055L3.57695 6.28596C3.68321 6.38961 3.83926 6.51373 4.04516 6.65834C4.25111 6.80305 4.47911 6.9455 4.72929 7.08594C4.97951 7.22615 5.2706 7.34057 5.60273 7.42906C5.93481 7.51764 6.25803 7.55319 6.57243 7.53604H7.33625C7.49116 7.523 7.60853 7.4755 7.68829 7.39352L7.71472 7.36105C7.73249 7.33529 7.74913 7.29525 7.76448 7.24137C7.78002 7.18741 7.78775 7.12795 7.78775 7.06328C7.78321 6.87766 7.7977 6.71036 7.83083 6.56142C7.86393 6.41252 7.90166 6.30025 7.94386 6.22465C7.98604 6.14911 8.03364 6.08537 8.08661 6.03369C8.13969 5.9819 8.17752 5.95053 8.19971 5.93973C8.22177 5.92887 8.23938 5.9215 8.25266 5.91707C8.35893 5.88255 8.48399 5.91598 8.62803 6.01754C8.77196 6.11901 8.90696 6.24429 9.03323 6.39319C9.15944 6.54223 9.31106 6.70943 9.48814 6.89505C9.66534 7.08075 9.82027 7.21878 9.95306 7.30958L10.0858 7.3873C10.1745 7.43916 10.2897 7.48666 10.4314 7.52982C10.5728 7.57297 10.6968 7.58377 10.8032 7.56219L12.5034 7.53633C12.6716 7.53633 12.8025 7.50918 12.8953 7.45531C12.9883 7.40134 13.0436 7.34189 13.0614 7.27721C13.0791 7.21247 13.0801 7.13902 13.0647 7.05691C13.049 6.97499 13.0335 6.91772 13.018 6.88535Z" fill="#494949"/>
</svg>
